<svg width="1938" height="1341" viewBox="0 0 1938 1341" fill="none" xmlns="http://www.w3.org/2000/svg">
<path d="M82.365 1309.92C141.408 1247.83 190.031 1247.82 242.104 1304.34C245.374 1307.89 247.095 1312.57 247.095 1317.4V1708.77C247.095 1712.51 248.092 1716.2 250.286 1719.23C281.537 1762.32 356.758 1778.16 400.52 1714.49C400.52 1714.49 400.819 1441.16 400.819 1243C400.819 1152.48 558.282 1166.2 558.282 1243C558.282 1356.81 557.982 1498.49 557.982 1498.49C603.206 1569.94 675.044 1555.03 708.177 1498.49V1253C708.177 1196.09 829.302 1193.34 829.302 1253V1378.49C829.302 1419.63 893.902 1409.34 893.902 1378.49V1277C893.902 1257.11 932.662 1264.66 932.662 1277V1447.74C940.764 1464.21 990.09 1475.59 1005.84 1447.74V1618.49C1005.84 1650.72 1055.4 1651.4 1055.4 1618.49V1360.66C1055.4 1330.49 1113.54 1334.6 1113.54 1360.66V1509.46C1113.54 1565.69 1210.44 1547.86 1210.44 1509.46C1210.44 1471.06 1215.53 1386.48 1210.44 1316.77C1205.36 1247.07 1370.04 1234.53 1375.17 1316.77C1380.31 1399.02 1375.17 1593.12 1375.17 1678.83C1375.17 1764.55 1526.17 1726.83 1526.17 1678.83V1187.86C1526.17 1124.77 1681.21 1132.31 1681.21 1187.86V1479.29C1681.21 1558.14 1833.83 1536.2 1833.83 1479.29V1237.23C1833.83 1288.66 1938 1276.31 1938 1237.23V1105C1938 1093.95 1929.05 1085 1918 1085H20.0763C9.00087 1085 0.0342465 1094 0.0763864 1105.08L1.615 1509.46C7.2675 1561.57 82.365 1543.06 82.365 1509.46V1309.92Z" fill="#5A5ABE"/>
<rect width="1938" height="1153" rx="45" fill="#5A5ABE"/>
</svg>
