<svg width="102" height="103" viewBox="0 0 102 103" fill="none" xmlns="http://www.w3.org/2000/svg">
<path d="M26.8716 1.0228C27.0428 1.0836 51.4758 15.9794 51.4758 15.9794C51.7286 15.5176 75.7946 1.0836 75.7946 1.0836C75.7946 1.0836 76.3084 1.0228 76.6509 1.1444C76.9934 1.266 77.1647 1.50919 77.1647 1.50919C77.1647 1.50919 77.393 1.87399 77.4501 2.23878C77.5072 2.60358 77.5072 2.78597 77.4501 2.90757C77.393 3.02917 52.96 38.779 52.7317 38.9614C52.5034 39.1438 51.744 39.3105 51.1333 39.2654C50.0187 39.1832 49.338 38.3531 49.3636 38.3534C49.3636 38.3534 25.4444 3.51558 25.3873 3.33317C25.3303 3.15077 25.159 2.48199 25.2161 2.11719C25.2732 1.7524 25.5586 1.3876 25.7869 1.2052C26.0153 1.0228 26.7003 0.962001 26.8716 1.0228Z" fill="#0F41FA"/>
<path d="M26.8716 1.0228C27.0428 1.0836 51.4758 15.9794 51.4758 15.9794C51.7286 15.5176 75.7946 1.0836 75.7946 1.0836C75.7946 1.0836 76.3084 1.0228 76.6509 1.1444C76.9934 1.266 77.1647 1.50919 77.1647 1.50919C77.1647 1.50919 77.393 1.87399 77.4501 2.23878C77.5072 2.60358 77.5072 2.78597 77.4501 2.90757C77.393 3.02917 52.96 38.779 52.7317 38.9614C52.5034 39.1438 51.744 39.3105 51.1333 39.2654C50.0187 39.1832 49.338 38.3531 49.3636 38.3534C49.3636 38.3534 25.4444 3.51558 25.3873 3.33317C25.3303 3.15077 25.159 2.48199 25.2161 2.11719C25.2732 1.7524 25.5586 1.3876 25.7869 1.2052C26.0153 1.0228 26.7003 0.962001 26.8716 1.0228Z" fill="#0F41FA"/>
<path d="M26.8716 1.0228C27.0428 1.0836 51.4758 15.9794 51.4758 15.9794C51.7286 15.5176 75.7946 1.0836 75.7946 1.0836C75.7946 1.0836 76.3084 1.0228 76.6509 1.1444C76.9934 1.266 77.1647 1.50919 77.1647 1.50919C77.1647 1.50919 77.393 1.87399 77.4501 2.23878C77.5072 2.60358 77.5072 2.78597 77.4501 2.90757C77.393 3.02917 52.96 38.779 52.7317 38.9614C52.5034 39.1438 51.744 39.3105 51.1333 39.2654C50.0187 39.1832 49.338 38.3531 49.3636 38.3534C49.3636 38.3534 25.4444 3.51558 25.3873 3.33317C25.3303 3.15077 25.159 2.48199 25.2161 2.11719C25.2732 1.7524 25.5586 1.3876 25.7869 1.2052C26.0153 1.0228 26.7003 0.962001 26.8716 1.0228Z" stroke="#0F41FA"/>
<path d="M1.53549 58.2402C1.6427 58.0856 22.4945 37.9402 22.4945 37.9402C22.1603 37.5414 16.7078 8.7044 16.7078 8.7044C16.7078 8.7044 16.8123 8.16521 17.0267 7.85585C17.2412 7.54648 17.5112 7.44816 17.5112 7.44816C17.5112 7.44816 17.9076 7.32958 18.251 7.38449C18.5944 7.43941 18.7572 7.49576 18.8482 7.59116C18.9391 7.68657 43.3128 43.4823 43.4051 43.7699C43.4975 44.0576 43.4116 44.8783 43.1827 45.4829C42.7648 46.5865 41.8132 47.0195 41.8214 46.9936C41.8214 46.9936 3.32047 60.4561 3.13995 60.4576C2.95943 60.459 2.30929 60.4259 2.00118 60.2553C1.69307 60.0848 1.45551 59.6829 1.3632 59.3952C1.27088 59.1076 1.42827 58.3949 1.53549 58.2402Z" fill="#0F41FA"/>
<path d="M1.53549 58.2402C1.6427 58.0856 22.4945 37.9402 22.4945 37.9402C22.1603 37.5414 16.7078 8.7044 16.7078 8.7044C16.7078 8.7044 16.8123 8.16521 17.0267 7.85585C17.2412 7.54648 17.5112 7.44816 17.5112 7.44816C17.5112 7.44816 17.9076 7.32958 18.251 7.38449C18.5944 7.43941 18.7572 7.49576 18.8482 7.59116C18.9391 7.68657 43.3128 43.4823 43.4051 43.7699C43.4975 44.0576 43.4116 44.8783 43.1827 45.4829C42.7648 46.5865 41.8132 47.0195 41.8214 46.9936C41.8214 46.9936 3.32047 60.4561 3.13995 60.4576C2.95943 60.459 2.30929 60.4259 2.00118 60.2553C1.69307 60.0848 1.45551 59.6829 1.3632 59.3952C1.27088 59.1076 1.42827 58.3949 1.53549 58.2402Z" fill="#0F41FA"/>
<path d="M1.53549 58.2402C1.6427 58.0856 22.4945 37.9402 22.4945 37.9402C22.1603 37.5414 16.7078 8.7044 16.7078 8.7044C16.7078 8.7044 16.8123 8.16521 17.0267 7.85585C17.2412 7.54648 17.5112 7.44816 17.5112 7.44816C17.5112 7.44816 17.9076 7.32958 18.251 7.38449C18.5944 7.43941 18.7572 7.49576 18.8482 7.59116C18.9391 7.68657 43.3128 43.4823 43.4051 43.7699C43.4975 44.0576 43.4116 44.8783 43.1827 45.4829C42.7648 46.5865 41.8132 47.0195 41.8214 46.9936C41.8214 46.9936 3.32047 60.4561 3.13995 60.4576C2.95943 60.459 2.30929 60.4259 2.00118 60.2553C1.69307 60.0848 1.45551 59.6829 1.3632 59.3952C1.27088 59.1076 1.42827 58.3949 1.53549 58.2402Z" stroke="#0F41FA"/>
<path d="M45.0487 101.695C44.9437 101.538 33.3979 74.1921 33.3979 74.1921C32.9385 74.4074 5.50273 71.0191 5.50273 71.0191C5.50273 71.0191 5.05353 70.7467 4.84353 70.4339C4.63354 70.1211 4.62921 69.8172 4.62921 69.8172C4.62921 69.8172 4.64579 69.3791 4.80093 69.0482C4.95608 68.7174 5.05674 68.5698 5.17003 68.5072C5.28333 68.4445 44.7801 54.8176 45.0655 54.813C45.3509 54.8084 46.0572 55.1489 46.5264 55.5677C47.3827 56.3319 47.4753 57.4296 47.4548 57.4133C47.4548 57.4133 47.5791 100.571 47.5246 100.755C47.4701 100.938 47.2396 101.586 46.992 101.846C46.7445 102.105 46.3123 102.222 46.0269 102.226C45.7415 102.231 45.1537 101.851 45.0487 101.695Z" fill="#0F41FA"/>
<path d="M45.0487 101.695C44.9437 101.538 33.3979 74.1921 33.3979 74.1921C32.9385 74.4074 5.50273 71.0191 5.50273 71.0191C5.50273 71.0191 5.05353 70.7467 4.84353 70.4339C4.63354 70.1211 4.62921 69.8172 4.62921 69.8172C4.62921 69.8172 4.64579 69.3791 4.80093 69.0482C4.95608 68.7174 5.05674 68.5698 5.17003 68.5072C5.28333 68.4445 44.7801 54.8176 45.0655 54.813C45.3509 54.8084 46.0572 55.1489 46.5264 55.5677C47.3827 56.3319 47.4753 57.4296 47.4548 57.4133C47.4548 57.4133 47.5791 100.571 47.5246 100.755C47.4701 100.938 47.2396 101.586 46.992 101.846C46.7445 102.105 46.3123 102.222 46.0269 102.226C45.7415 102.231 45.1537 101.851 45.0487 101.695Z" fill="#0F41FA"/>
<path d="M45.0487 101.695C44.9437 101.538 33.3979 74.1921 33.3979 74.1921C32.9385 74.4074 5.50273 71.0191 5.50273 71.0191C5.50273 71.0191 5.05353 70.7467 4.84353 70.4339C4.63354 70.1211 4.62921 69.8172 4.62921 69.8172C4.62921 69.8172 4.64579 69.3791 4.80093 69.0482C4.95608 68.7174 5.05674 68.5698 5.17003 68.5072C5.28333 68.4445 44.7801 54.8176 45.0655 54.813C45.3509 54.8084 46.0572 55.1489 46.5264 55.5677C47.3827 56.3319 47.4753 57.4296 47.4548 57.4133C47.4548 57.4133 47.5791 100.571 47.5246 100.755C47.4701 100.938 47.2396 101.586 46.992 101.846C46.7445 102.105 46.3123 102.222 46.0269 102.226C45.7415 102.231 45.1537 101.851 45.0487 101.695Z" stroke="#0F41FA"/>
<path d="M97.201 71.292C97.0289 71.35 69.0414 74.5944 69.0414 74.5944C69.0917 75.1263 57.5879 101.869 57.5879 101.869C57.5879 101.869 57.2059 102.24 56.8616 102.356C56.5174 102.472 56.2447 102.383 56.2447 102.383C56.2447 102.383 55.8586 102.23 55.6111 101.971C55.3636 101.712 55.2629 101.564 55.242 101.43C55.2211 101.296 55.2577 57.0782 55.3417 56.7877C55.4258 56.4972 55.9482 55.887 56.4671 55.5412C57.4142 54.9099 58.423 55.1554 58.4021 55.1711C58.4021 55.1711 96.9799 68.3818 97.1267 68.4937C97.2736 68.6055 97.7812 69.0393 97.9364 69.3702C98.0915 69.7011 98.062 70.1749 97.9779 70.4654C97.8938 70.7559 97.3732 71.2339 97.201 71.292Z" fill="#0F41FA"/>
<path d="M97.201 71.292C97.0289 71.35 69.0414 74.5944 69.0414 74.5944C69.0917 75.1263 57.5879 101.869 57.5879 101.869C57.5879 101.869 57.2059 102.24 56.8616 102.356C56.5174 102.472 56.2447 102.383 56.2447 102.383C56.2447 102.383 55.8586 102.23 55.6111 101.971C55.3636 101.712 55.2629 101.564 55.242 101.43C55.2211 101.296 55.2577 57.0782 55.3417 56.7877C55.4258 56.4972 55.9482 55.887 56.4671 55.5412C57.4142 54.9099 58.423 55.1554 58.4021 55.1711C58.4021 55.1711 96.9799 68.3818 97.1267 68.4937C97.2736 68.6055 97.7812 69.0393 97.9364 69.3702C98.0915 69.7011 98.062 70.1749 97.9779 70.4654C97.8938 70.7559 97.3732 71.2339 97.201 71.292Z" fill="#0F41FA"/>
<path d="M97.201 71.292C97.0289 71.35 69.0414 74.5944 69.0414 74.5944C69.0917 75.1263 57.5879 101.869 57.5879 101.869C57.5879 101.869 57.2059 102.24 56.8616 102.356C56.5174 102.472 56.2447 102.383 56.2447 102.383C56.2447 102.383 55.8586 102.23 55.6111 101.971C55.3636 101.712 55.2629 101.564 55.242 101.43C55.2211 101.296 55.2577 57.0782 55.3417 56.7877C55.4258 56.4972 55.9482 55.887 56.4671 55.5412C57.4142 54.9099 58.423 55.1554 58.4021 55.1711C58.4021 55.1711 96.9799 68.3818 97.1267 68.4937C97.2736 68.6055 97.7812 69.0393 97.9364 69.3702C98.0915 69.7011 98.062 70.1749 97.9779 70.4654C97.8938 70.7559 97.3732 71.2339 97.201 71.292Z" stroke="#0F41FA"/>
<path d="M85.3368 8.65387C85.3354 8.84613 79.584 38.1976 79.584 38.1976C80.0745 38.311 100.401 58.2273 100.401 58.2273C100.401 58.2273 100.614 58.7289 100.611 59.1134C100.608 59.4979 100.444 59.7466 100.444 59.7466C100.444 59.7466 100.189 60.0906 99.8806 60.2611C99.5725 60.4317 99.4096 60.4881 99.2834 60.4678C99.1571 60.4475 59.683 46.7465 59.4496 46.5715C59.2162 46.3966 58.8327 45.6789 58.6842 45.0464C58.4132 43.8921 58.9441 42.9461 58.9517 42.9721C58.9517 42.9721 82.6698 7.97859 82.815 7.86441C82.9603 7.75023 83.5046 7.37009 83.848 7.31518C84.1914 7.26028 84.6053 7.43666 84.8388 7.61159C85.0722 7.78653 85.3382 8.46162 85.3368 8.65387Z" fill="#0F41FA"/>
<path d="M85.3368 8.65387C85.3354 8.84613 79.584 38.1976 79.584 38.1976C80.0745 38.311 100.401 58.2273 100.401 58.2273C100.401 58.2273 100.614 58.7289 100.611 59.1134C100.608 59.4979 100.444 59.7466 100.444 59.7466C100.444 59.7466 100.189 60.0906 99.8806 60.2611C99.5725 60.4317 99.4096 60.4881 99.2834 60.4678C99.1571 60.4475 59.683 46.7465 59.4496 46.5715C59.2162 46.3966 58.8327 45.6789 58.6842 45.0464C58.4132 43.8921 58.9441 42.9461 58.9517 42.9721C58.9517 42.9721 82.6698 7.97859 82.815 7.86441C82.9603 7.75023 83.5046 7.37009 83.848 7.31518C84.1914 7.26028 84.6053 7.43666 84.8388 7.61159C85.0722 7.78653 85.3382 8.46162 85.3368 8.65387Z" fill="#0F41FA"/>
<path d="M85.3368 8.65387C85.3354 8.84613 79.584 38.1976 79.584 38.1976C80.0745 38.311 100.401 58.2273 100.401 58.2273C100.401 58.2273 100.614 58.7289 100.611 59.1134C100.608 59.4979 100.444 59.7466 100.444 59.7466C100.444 59.7466 100.189 60.0906 99.8806 60.2611C99.5725 60.4317 99.4096 60.4881 99.2834 60.4678C99.1571 60.4475 59.683 46.7465 59.4496 46.5715C59.2162 46.3966 58.8327 45.6789 58.6842 45.0464C58.4132 43.8921 58.9441 42.9461 58.9517 42.9721C58.9517 42.9721 82.6698 7.97859 82.815 7.86441C82.9603 7.75023 83.5046 7.37009 83.848 7.31518C84.1914 7.26028 84.6053 7.43666 84.8388 7.61159C85.0722 7.78653 85.3382 8.46162 85.3368 8.65387Z" stroke="#0F41FA"/>
</svg>
