<svg width="76" height="88" viewBox="0 0 76 88" fill="none" xmlns="http://www.w3.org/2000/svg">
<path d="M42.4475 21.3693C43.8984 19.5593 43.6072 16.916 41.7968 15.4654C39.9868 14.0147 37.3436 14.306 35.8932 16.116L42.4475 21.3693ZM6.14155 59.9533L9.32252 62.6956C9.35534 62.6575 9.38743 62.6189 9.41884 62.5797L6.14155 59.9533ZM5.18395 62.2941L0.99213 62.0202L0.988434 62.0998L5.18395 62.2941ZM4.39995 79.2229L0.204435 79.0286C0.194803 79.2369 0.200683 79.4457 0.222131 79.6535L4.39995 79.2229ZM8.80716 83.0701L8.94447 87.2678C9.22458 87.2583 9.50301 87.2213 9.77573 87.1564L8.80716 83.0701ZM25.6072 79.0885L26.576 83.1754L26.6409 83.1591L25.6072 79.0885ZM27.7632 77.7221L31.0033 80.395L31.0397 80.3496L27.7632 77.7221ZM64.8637 38.1704C66.3147 36.3605 66.024 33.7173 64.2147 32.2661C62.4053 30.8149 59.7616 31.1056 58.3106 32.9154L64.8637 38.1704ZM35.9106 16.1149C34.4596 17.9244 34.7497 20.5678 36.5596 22.0191C38.369 23.4703 41.0122 23.1799 42.4637 21.3705L35.9106 16.1149ZM48.08 7.65465L51.3565 10.2825C51.4114 10.2136 51.4646 10.1431 51.5156 10.0709L48.08 7.65465ZM57.2024 5.86265L59.8892 2.63459C59.7554 2.52326 59.6148 2.42039 59.4687 2.32648L57.2024 5.86265ZM69.7296 16.2899L72.702 13.3227C72.6108 13.2314 72.5156 13.1444 72.4164 13.0618L69.7296 16.2899ZM69.6792 25.4627L66.7392 22.4631C66.6204 22.5798 66.5084 22.7034 66.4037 22.8334L69.6792 25.4627ZM58.3106 32.9154C56.8585 34.7242 57.1492 37.3657 58.958 38.8178C60.7668 40.2698 63.4116 39.9792 64.8637 38.1704L58.3106 32.9154ZM43.3407 18.1203C42.9968 15.8263 40.8588 14.2453 38.565 14.5891C36.2707 14.9328 34.6898 17.0711 35.0336 19.3651L43.3407 18.1203ZM62.1528 39.7042C64.451 39.3923 66.061 37.2755 65.7491 34.9773C65.4366 32.6787 63.3204 31.0686 61.0216 31.3809L62.1528 39.7042ZM35.8932 16.116L2.86427 57.3263L9.41884 62.5797L42.4475 21.3693L35.8932 16.116ZM2.96059 57.2104C1.79937 58.5572 1.10788 60.2456 0.99213 62.0202L9.37505 62.5674C9.37197 62.6144 9.35355 62.6598 9.32252 62.6956L2.96059 57.2104ZM0.988434 62.0998L0.204435 79.0286L8.59547 79.4172L9.37948 62.4884L0.988434 62.0998ZM0.222131 79.6535C0.679483 84.0882 4.48888 87.4134 8.94447 87.2678L8.66984 78.8723C8.65192 78.8729 8.64313 78.8701 8.63742 78.8678C8.62941 78.865 8.61883 78.8594 8.60802 78.8499C8.59715 78.8404 8.59015 78.8309 8.58618 78.8236C8.58332 78.818 8.57963 78.8096 8.57778 78.7917L0.222131 79.6535ZM9.77573 87.1564L26.576 83.1754L24.6384 75.0016L7.83858 78.9832L9.77573 87.1564ZM26.6409 83.1591C28.3517 82.7246 29.88 81.7569 31.0033 80.395L24.523 75.0492C24.5364 75.0335 24.5538 75.0223 24.5734 75.0173L26.6409 83.1591ZM31.0397 80.3496L64.8637 38.1704L58.3106 32.9154L24.4866 75.0946L31.0397 80.3496ZM42.4637 21.3705L51.3565 10.2825L44.8034 5.02691L35.9106 16.1149L42.4637 21.3705ZM51.5156 10.0709C52.2917 8.96701 53.7998 8.67072 54.936 9.39888L59.4687 2.32648C54.5446 -0.8289 48.0088 0.454956 44.6444 5.23848L51.5156 10.0709ZM54.5155 9.09072L67.0427 19.5179L72.4164 13.0618L59.8892 2.63459L54.5155 9.09072ZM66.7571 19.257C67.1821 19.6831 67.4195 20.2616 67.4162 20.8637L75.8162 20.9099C75.8319 18.0667 74.7108 15.3351 72.702 13.3227L66.7571 19.257ZM67.4162 20.8637C67.4134 21.4658 67.1692 22.0416 66.7392 22.4631L72.6191 28.4623C74.6497 26.4721 75.8005 23.753 75.8162 20.9099L67.4162 20.8637ZM66.4037 22.8334L58.3106 32.9154L64.8637 38.1704L72.9546 28.092L66.4037 22.8334ZM35.0336 19.3651C36.9897 32.4204 49.0717 41.4817 62.1528 39.7042L61.0216 31.3809C52.4933 32.5397 44.6164 26.6319 43.3407 18.1203L35.0336 19.3651Z" fill="black"/>
</svg>
