<svg width="100" height="100" viewBox="0 0 100 100" fill="none" xmlns="http://www.w3.org/2000/svg">
<path d="M50.0966 18.8348C55.2981 18.8348 59.5132 14.6166 59.5132 9.41973C59.5132 4.21484 55.2983 0 50.0966 0C44.8915 0 40.6782 4.21484 40.6782 9.41973C40.6784 14.6166 44.8917 18.8348 50.0966 18.8348Z" fill="#0F41FA"/>
<path d="M58.2552 23.2967H49.9991H41.7431C37.1802 23.2967 32.2159 28.2611 32.2159 32.8256V64.4776C32.2159 66.7598 34.0642 68.6096 36.3464 68.6096C37.4681 68.6096 36.3464 68.6096 39.2284 68.6096L40.8003 95.6029C40.8003 98.0315 42.7687 100 45.1974 100C46.2216 100 48.112 100 49.9991 100C51.888 100 53.7784 100 54.8025 100C57.231 100 59.1995 98.0317 59.1995 95.6029L60.7698 68.6096C63.6534 68.6096 62.5302 68.6096 63.6534 68.6096C65.9339 68.6096 67.7839 66.7598 67.7839 64.4776V32.8256C67.7839 28.2611 62.8195 23.2967 58.2552 23.2967Z" fill="#0F41FA"/>
<path d="M20.34 29.1178C24.8834 29.1178 28.5636 25.4361 28.5636 20.8943C28.5636 16.351 24.8834 12.6693 20.34 12.6693C15.7951 12.6693 12.1166 16.3512 12.1166 20.8943C12.1166 25.4359 15.7951 29.1178 20.34 29.1178Z" fill="#0F41FA"/>
<path d="M79.8273 29.1178C84.3722 29.1178 88.0508 25.4361 88.0508 20.8943C88.0508 16.351 84.3722 12.6693 79.8273 12.6693C75.2857 12.6693 71.6039 16.3512 71.6039 20.8943C71.6039 25.4359 75.2857 29.1178 79.8273 29.1178Z" fill="#0F41FA"/>
<path d="M26.808 33.0125H20.2556H13.0447C9.06069 33.0125 4.72534 37.351 4.72534 41.3352V68.977C4.72534 70.9715 6.3394 72.5856 8.33237 72.5856C9.31245 72.5856 8.33237 72.5856 10.8488 72.5856L12.2207 96.1606C12.2207 98.2801 13.9404 100 16.0617 100C16.9556 100 18.6054 100 20.2556 100C21.9039 100 23.5554 100 24.4494 100C26.5707 100 28.2904 98.2803 28.2904 96.1606L29.6607 72.5856V71.2479C27.9068 69.5182 26.808 67.1303 26.808 64.4776V33.0125Z" fill="#0F41FA"/>
<path d="M86.9552 33.0125H79.7427H73.1919V64.4776C73.1919 67.1303 72.0931 69.5182 70.3374 71.2479V72.5856L71.7079 96.1606C71.7079 98.2801 73.4294 100 75.5505 100C76.4446 100 78.0944 100 79.7427 100C81.3942 100 83.0442 100 83.9382 100C86.0597 100 87.7778 98.2803 87.7778 96.1606L89.1513 72.5856C91.6675 72.5856 90.6874 72.5856 91.6675 72.5856C93.6605 72.5856 95.2745 70.9713 95.2745 68.977V41.3352C95.2745 37.351 90.9394 33.0125 86.9552 33.0125Z" fill="#0F41FA"/>
</svg>
